<svg width="550" height="430" viewBox="0 0 550 430" fill="none" xmlns="http://www.w3.org/2000/svg">
<rect x="40" width="470" height="19" fill="#D9D9D9"/>
<circle cx="55" cy="75" r="15" fill="#71F022"/>
<circle cx="55" cy="335" r="15" fill="#FB20F2"/>
<circle cx="495" cy="334" r="15" fill="#FB20F2"/>
<circle cx="15" cy="335" r="15" fill="#FB20F2"/>
<circle cx="455" cy="334" r="15" fill="#FB20F2"/>
<circle cx="335" cy="334" r="15" fill="#FB20F2"/>
<circle cx="215" cy="334" r="15" fill="#FB20F2"/>
<circle cx="55" cy="155" r="15" fill="#71F022"/>
<circle cx="15" cy="155" r="15" fill="#71F022"/>
<circle cx="55" cy="235" r="15" fill="#75C4F0"/>
<circle cx="55" cy="415" r="15" fill="#FB20F2"/>
<circle cx="495" cy="414" r="15" fill="#FB20F2"/>
<circle cx="15" cy="235" r="15" fill="#75C4F0"/>
<circle cx="15" cy="415" r="15" fill="#FB20F2"/>
<circle cx="455" cy="414" r="15" fill="#FB20F2"/>
<circle cx="335" cy="414" r="15" fill="#FB20F2"/>
<circle cx="215" cy="414" r="15" fill="#FB20F2"/>
<circle cx="55" cy="115" r="15" fill="#71F022"/>
<circle cx="15" cy="115" r="15" fill="#71F022"/>
<circle cx="55" cy="195" r="15" fill="#75C4F0"/>
<circle cx="55" cy="375" r="15" fill="#FB20F2"/>
<circle cx="495" cy="374" r="15" fill="#FB20F2"/>
<circle cx="15" cy="195" r="15" fill="#75C4F0"/>
<circle cx="15" cy="375" r="15" fill="#FB20F2"/>
<circle cx="455" cy="374" r="15" fill="#FB20F2"/>
<circle cx="335" cy="374" r="15" fill="#FB20F2"/>
<circle cx="215" cy="374" r="15" fill="#FB20F2"/>
<circle cx="55" cy="275" r="15" fill="#75C4F0"/>
<circle cx="15" cy="275" r="15" fill="#75C4F0"/>
<circle cx="295" cy="75" r="15" fill="#71F022"/>
<circle cx="295" cy="334" r="15" fill="#FB20F2"/>
<circle cx="295" cy="155" r="15" fill="#71F022"/>
<circle cx="295" cy="235" r="15" fill="#75C4F0"/>
<circle cx="295" cy="414" r="15" fill="#FB20F2"/>
<circle cx="295" cy="115" r="15" fill="#71F022"/>
<circle cx="295" cy="195" r="15" fill="#75C4F0"/>
<circle cx="295" cy="374" r="15" fill="#FB20F2"/>
<circle cx="295" cy="275" r="15" fill="#75C4F0"/>
<circle cx="175" cy="75" r="15" fill="#71F022"/>
<circle cx="175" cy="155" r="15" fill="#71F022"/>
<circle cx="175" cy="235" r="15" fill="#75C4F0"/>
<circle cx="175" cy="115" r="15" fill="#71F022"/>
<circle cx="175" cy="195" r="15" fill="#75C4F0"/>
<circle cx="175" cy="275" r="15" fill="#75C4F0"/>
<circle cx="415" cy="75" r="15" fill="#71F022"/>
<circle cx="415" cy="155" r="15" fill="#71F022"/>
<circle cx="415" cy="235" r="15" fill="#75C4F0"/>
<circle cx="415" cy="115" r="15" fill="#71F022"/>
<circle cx="415" cy="195" r="15" fill="#75C4F0"/>
<circle cx="415" cy="275" r="15" fill="#75C4F0"/>
<circle cx="95" cy="75" r="15" fill="#71F022"/>
<circle cx="95" cy="335" r="15" fill="#FB20F2"/>
<circle cx="535" cy="334" r="15" fill="#FB20F2"/>
<circle cx="95" cy="155" r="15" fill="#71F022"/>
<circle cx="95" cy="235" r="15" fill="#75C4F0"/>
<circle cx="95" cy="415" r="15" fill="#FB20F2"/>
<circle cx="535" cy="414" r="15" fill="#FB20F2"/>
<circle cx="95" cy="115" r="15" fill="#71F022"/>
<circle cx="95" cy="195" r="15" fill="#75C4F0"/>
<circle cx="95" cy="375" r="15" fill="#FB20F2"/>
<circle cx="535" cy="374" r="15" fill="#FB20F2"/>
<circle cx="95" cy="275" r="15" fill="#75C4F0"/>
<circle cx="335" cy="75" r="15" fill="#71F022"/>
<circle cx="335" cy="155" r="15" fill="#71F022"/>
<circle cx="335" cy="235" r="15" fill="#75C4F0"/>
<circle cx="335" cy="115" r="15" fill="#71F022"/>
<circle cx="335" cy="195" r="15" fill="#75C4F0"/>
<circle cx="335" cy="275" r="15" fill="#75C4F0"/>
<circle cx="215" cy="75" r="15" fill="#71F022"/>
<circle cx="215" cy="155" r="15" fill="#71F022"/>
<circle cx="215" cy="235" r="15" fill="#75C4F0"/>
<circle cx="215" cy="115" r="15" fill="#71F022"/>
<circle cx="215" cy="195" r="15" fill="#75C4F0"/>
<circle cx="215" cy="275" r="15" fill="#75C4F0"/>
<circle cx="455" cy="75" r="15" fill="#71F022"/>
<circle cx="455" cy="155" r="15" fill="#71F022"/>
<circle cx="455" cy="235" r="15" fill="#75C4F0"/>
<circle cx="455" cy="115" r="15" fill="#71F022"/>
<circle cx="455" cy="195" r="15" fill="#75C4F0"/>
<circle cx="455" cy="275" r="15" fill="#75C4F0"/>
<circle cx="135" cy="75" r="15" fill="#71F022"/>
<circle cx="135" cy="155" r="15" fill="#71F022"/>
<circle cx="135" cy="235" r="15" fill="#75C4F0"/>
<circle cx="135" cy="115" r="15" fill="#71F022"/>
<circle cx="135" cy="195" r="15" fill="#75C4F0"/>
<circle cx="135" cy="275" r="15" fill="#75C4F0"/>
<circle cx="375" cy="75" r="15" fill="#71F022"/>
<circle cx="375" cy="155" r="15" fill="#71F022"/>
<circle cx="375" cy="235" r="15" fill="#75C4F0"/>
<circle cx="375" cy="115" r="15" fill="#71F022"/>
<circle cx="375" cy="195" r="15" fill="#75C4F0"/>
<circle cx="375" cy="275" r="15" fill="#75C4F0"/>
<circle cx="255" cy="75" r="15" fill="#71F022"/>
<circle cx="255" cy="334" r="15" fill="#FB20F2"/>
<circle cx="255" cy="155" r="15" fill="#71F022"/>
<circle cx="255" cy="235" r="15" fill="#75C4F0"/>
<circle cx="255" cy="414" r="15" fill="#FB20F2"/>
<circle cx="255" cy="115" r="15" fill="#71F022"/>
<circle cx="255" cy="195" r="15" fill="#75C4F0"/>
<circle cx="255" cy="374" r="15" fill="#FB20F2"/>
<circle cx="255" cy="275" r="15" fill="#75C4F0"/>
<circle cx="495" cy="75" r="15" fill="#71F022"/>
<circle cx="495" cy="155" r="15" fill="#71F022"/>
<circle cx="535" cy="155" r="15" fill="#71F022"/>
<circle cx="495" cy="235" r="15" fill="#75C4F0"/>
<circle cx="535" cy="235" r="15" fill="#75C4F0"/>
<circle cx="495" cy="115" r="15" fill="#71F022"/>
<circle cx="535" cy="115" r="15" fill="#71F022"/>
<circle cx="495" cy="195" r="15" fill="#75C4F0"/>
<circle cx="535" cy="195" r="15" fill="#75C4F0"/>
<circle cx="495" cy="275" r="15" fill="#75C4F0"/>
<circle cx="535" cy="275" r="15" fill="#75C4F0"/>
</svg>
