<svg width="634" height="526" viewBox="0 0 634 526" fill="none" xmlns="http://www.w3.org/2000/svg">
<ellipse cx="93.5" cy="140.5" rx="8.5" ry="7.5" fill="#9EA39B"/>
<ellipse cx="94.5" cy="102.5" rx="9.5" ry="7.5" fill="#75C4F0"/>
<circle cx="93.5" cy="65.5" r="8.5" fill="#9EA39B"/>
<ellipse cx="93.5" cy="123.5" rx="8.5" ry="7.5" fill="#9EA39B"/>
<ellipse cx="94.5" cy="84.5" rx="9.5" ry="8.5" fill="#75C4F0"/>
<ellipse cx="93.5" cy="47.5" rx="8.5" ry="7.5" fill="#9EA39B"/>
<ellipse cx="264" cy="140.5" rx="9" ry="7.5" fill="#9EA39B"/>
<ellipse cx="264" cy="102.5" rx="9" ry="7.5" fill="#75C4F0"/>
<ellipse cx="264" cy="65.5" rx="9" ry="8.5" fill="#71F022"/>
<ellipse cx="264" cy="123.5" rx="9" ry="7.5" fill="#9EA39B"/>
<ellipse cx="264" cy="84.5" rx="9" ry="8.5" fill="#75C4F0"/>
<ellipse cx="264" cy="47.5" rx="9" ry="7.5" fill="#71F022"/>
<ellipse cx="475.5" cy="140.5" rx="8.5" ry="7.5" fill="#9EA39B"/>
<ellipse cx="453.5" cy="140.5" rx="8.5" ry="7.5" fill="#9EA39B"/>
<ellipse cx="475.5" cy="102.5" rx="8.5" ry="7.5" fill="#75C4F0"/>
<circle cx="475.5" cy="65.5" r="8.5" fill="#71F022"/>
<ellipse cx="475.5" cy="123.5" rx="8.5" ry="7.5" fill="#9EA39B"/>
<circle cx="475.5" cy="84.5" r="8.5" fill="#75C4F0"/>
<ellipse cx="475.5" cy="47.5" rx="8.5" ry="7.5" fill="#71F022"/>
<ellipse cx="180.5" cy="140.5" rx="8.5" ry="7.5" fill="#9EA39B"/>
<ellipse cx="180.5" cy="102.5" rx="8.5" ry="7.5" fill="#75C4F0"/>
<circle cx="180.5" cy="65.5" r="8.5" fill="#71F022"/>
<ellipse cx="180.5" cy="123.5" rx="8.5" ry="7.5" fill="#9EA39B"/>
<circle cx="180.5" cy="84.5" r="8.5" fill="#75C4F0"/>
<ellipse cx="180.5" cy="47.5" rx="8.5" ry="7.5" fill="#71F022"/>
<ellipse cx="52.5" cy="140.5" rx="8.5" ry="7.5" fill="#9EA39B"/>
<ellipse cx="53" cy="102.5" rx="9" ry="7.5" fill="#9EA39B"/>
<circle cx="52.5" cy="65.5" r="8.5" fill="#9EA39B"/>
<ellipse cx="52.5" cy="123.5" rx="8.5" ry="7.5" fill="#9EA39B"/>
<ellipse cx="53" cy="84.5" rx="9" ry="8.5" fill="#9EA39B"/>
<ellipse cx="347.5" cy="140.5" rx="8.5" ry="7.5" fill="#75C4F0"/>
<ellipse cx="348.5" cy="102.5" rx="9.5" ry="7.5" fill="#75C4F0"/>
<circle cx="347.5" cy="65.5" r="8.5" fill="#71F022"/>
<ellipse cx="347.5" cy="123.5" rx="8.5" ry="7.5" fill="#75C4F0"/>
<ellipse cx="348.5" cy="84.5" rx="9.5" ry="8.5" fill="#75C4F0"/>
<ellipse cx="347.5" cy="47.5" rx="8.5" ry="7.5" fill="#71F022"/>
<ellipse cx="561.5" cy="140.5" rx="8.5" ry="7.5" fill="#9EA39B"/>
<ellipse cx="561.5" cy="102.5" rx="8.5" ry="7.5" fill="#9EA39B"/>
<circle cx="561.5" cy="65.5" r="8.5" fill="#9EA39B"/>
<ellipse cx="561.5" cy="123.5" rx="8.5" ry="7.5" fill="#9EA39B"/>
<circle cx="561.5" cy="84.5" r="8.5" fill="#9EA39B"/>
<ellipse cx="561.5" cy="47.5" rx="8.5" ry="7.5" fill="#9EA39B"/>
<ellipse cx="136.5" cy="140.5" rx="9.5" ry="7.5" fill="#9EA39B"/>
<ellipse cx="137.5" cy="102.5" rx="8.5" ry="7.5" fill="#75C4F0"/>
<ellipse cx="136.5" cy="65.5" rx="9.5" ry="8.5" fill="#9EA39B"/>
<ellipse cx="136.5" cy="123.5" rx="9.5" ry="7.5" fill="#9EA39B"/>
<circle cx="137.5" cy="84.5" r="8.5" fill="#75C4F0"/>
<ellipse cx="136.5" cy="47.5" rx="9.5" ry="7.5" fill="#9EA39B"/>
<ellipse cx="9.5" cy="140.5" rx="9.5" ry="7.5" fill="#9EA39B"/>
<ellipse cx="9.5" cy="123.5" rx="9.5" ry="7.5" fill="#9EA39B"/>
<ellipse cx="306.5" cy="140.5" rx="9.5" ry="7.5" fill="#9EA39B"/>
<ellipse cx="306.5" cy="102.5" rx="9.5" ry="7.5" fill="#9EA39B"/>
<ellipse cx="306.5" cy="65.5" rx="9.5" ry="8.5" fill="#71F022"/>
<ellipse cx="306.5" cy="123.5" rx="9.5" ry="7.5" fill="#75C4F0"/>
<ellipse cx="306.5" cy="84.5" rx="9.5" ry="8.5" fill="#75C4F0"/>
<ellipse cx="306.5" cy="47.5" rx="9.5" ry="7.5" fill="#71F022"/>
<ellipse cx="517.5" cy="140.5" rx="8.5" ry="7.5" fill="#9EA39B"/>
<ellipse cx="518.5" cy="102.5" rx="9.5" ry="7.5" fill="#9EA39B"/>
<circle cx="517.5" cy="65.5" r="8.5" fill="#9EA39B"/>
<ellipse cx="517.5" cy="123.5" rx="8.5" ry="7.5" fill="#9EA39B"/>
<ellipse cx="518.5" cy="84.5" rx="9.5" ry="8.5" fill="#9EA39B"/>
<ellipse cx="517.5" cy="47.5" rx="8.5" ry="7.5" fill="#9EA39B"/>
<ellipse cx="220.5" cy="140.5" rx="8.5" ry="7.5" fill="#9EA39B"/>
<ellipse cx="220.5" cy="102.5" rx="8.5" ry="7.5" fill="#9EA39B"/>
<circle cx="220.5" cy="65.5" r="8.5" fill="#9EA39B"/>
<ellipse cx="220.5" cy="123.5" rx="8.5" ry="7.5" fill="#9EA39B"/>
<circle cx="220.5" cy="84.5" r="8.5" fill="#9EA39B"/>
<ellipse cx="220.5" cy="47.5" rx="8.5" ry="7.5" fill="#9EA39B"/>
<ellipse cx="434.5" cy="140.5" rx="8.5" ry="7.5" fill="#9EA39B"/>
<ellipse cx="435.5" cy="102.5" rx="9.5" ry="7.5" fill="#75C4F0"/>
<circle cx="434.5" cy="65.5" r="8.5" fill="#71F022"/>
<ellipse cx="434.5" cy="123.5" rx="8.5" ry="7.5" fill="#9EA39B"/>
<ellipse cx="435.5" cy="84.5" rx="9.5" ry="8.5" fill="#75C4F0"/>
<ellipse cx="434.5" cy="47.5" rx="8.5" ry="7.5" fill="#71F022"/>
<ellipse cx="391.5" cy="140.5" rx="9.5" ry="7.5" fill="#9EA39B"/>
<ellipse cx="391.5" cy="102.5" rx="9.5" ry="7.5" fill="#75C4F0"/>
<ellipse cx="391.5" cy="65.5" rx="9.5" ry="8.5" fill="#71F022"/>
<ellipse cx="391.5" cy="123.5" rx="9.5" ry="7.5" fill="#9EA39B"/>
<ellipse cx="391.5" cy="84.5" rx="9.5" ry="8.5" fill="#75C4F0"/>
<ellipse cx="391.5" cy="47.5" rx="9.5" ry="7.5" fill="#71F022"/>
<ellipse cx="602.5" cy="140.5" rx="8.5" ry="7.5" fill="#9EA39B"/>
<ellipse cx="602.5" cy="102.5" rx="8.5" ry="7.5" fill="#9EA39B"/>
<ellipse cx="602.5" cy="123.5" rx="8.5" ry="7.5" fill="#9EA39B"/>
<circle cx="602.5" cy="84.5" r="8.5" fill="#9EA39B"/>
<ellipse cx="115.5" cy="140.5" rx="9.5" ry="7.5" fill="#9EA39B"/>
<ellipse cx="116.5" cy="102.5" rx="8.5" ry="7.5" fill="#9EA39B"/>
<ellipse cx="115.5" cy="65.5" rx="9.5" ry="8.5" fill="#9EA39B"/>
<ellipse cx="115.5" cy="123.5" rx="9.5" ry="7.5" fill="#9EA39B"/>
<circle cx="116.5" cy="84.5" r="8.5" fill="#75C4F0"/>
<ellipse cx="115.5" cy="47.5" rx="9.5" ry="7.5" fill="#9EA39B"/>
<ellipse cx="284.5" cy="140.5" rx="8.5" ry="7.5" fill="#75C4F0"/>
<ellipse cx="284.5" cy="102.5" rx="8.5" ry="7.5" fill="#75C4F0"/>
<circle cx="284.5" cy="65.5" r="8.5" fill="#71F022"/>
<ellipse cx="284.5" cy="123.5" rx="8.5" ry="7.5" fill="#75C4F0"/>
<circle cx="284.5" cy="84.5" r="8.5" fill="#75C4F0"/>
<ellipse cx="284.5" cy="47.5" rx="8.5" ry="7.5" fill="#71F022"/>
<ellipse cx="496.5" cy="140.5" rx="8.5" ry="7.5" fill="#9EA39B"/>
<ellipse cx="496.5" cy="102.5" rx="8.5" ry="7.5" fill="#9EA39B"/>
<circle cx="496.5" cy="65.5" r="8.5" fill="#9EA39B"/>
<ellipse cx="496.5" cy="123.5" rx="8.5" ry="7.5" fill="#9EA39B"/>
<circle cx="496.5" cy="84.5" r="8.5" fill="#9EA39B"/>
<ellipse cx="496.5" cy="47.5" rx="8.5" ry="7.5" fill="#9EA39B"/>
<ellipse cx="199.5" cy="140.5" rx="8.5" ry="7.5" fill="#9EA39B"/>
<circle cx="200.5" cy="102.5" r="7.5" fill="#75C4F0"/>
<circle cx="199.5" cy="65.5" r="8.5" fill="#9EA39B"/>
<ellipse cx="199.5" cy="123.5" rx="8.5" ry="7.5" fill="#9EA39B"/>
<ellipse cx="200.5" cy="84.5" rx="7.5" ry="8.5" fill="#9EA39B"/>
<ellipse cx="199.5" cy="47.5" rx="8.5" ry="7.5" fill="#71F022"/>
<ellipse cx="72.5" cy="140.5" rx="8.5" ry="7.5" fill="#9EA39B"/>
<ellipse cx="72.5" cy="102.5" rx="8.5" ry="7.5" fill="#75C4F0"/>
<circle cx="72.5" cy="65.5" r="8.5" fill="#9EA39B"/>
<ellipse cx="72.5" cy="123.5" rx="8.5" ry="7.5" fill="#9EA39B"/>
<circle cx="72.5" cy="84.5" r="8.5" fill="#75C4F0"/>
<ellipse cx="72.5" cy="47.5" rx="8.5" ry="7.5" fill="#9EA39B"/>
<ellipse cx="53" cy="47.5" rx="9" ry="7.5" fill="#71F022"/>
<ellipse cx="368.5" cy="140.5" rx="8.5" ry="7.5" fill="#75C4F0"/>
<ellipse cx="368.5" cy="102.5" rx="8.5" ry="7.5" fill="#75C4F0"/>
<circle cx="368.5" cy="65.5" r="8.5" fill="#9EA39B"/>
<ellipse cx="368.5" cy="123.5" rx="8.5" ry="7.5" fill="#9EA39B"/>
<circle cx="368.5" cy="84.5" r="8.5" fill="#75C4F0"/>
<ellipse cx="368.5" cy="47.5" rx="8.5" ry="7.5" fill="#9EA39B"/>
<ellipse cx="580" cy="140.5" rx="10" ry="7.5" fill="#9EA39B"/>
<ellipse cx="581.5" cy="102.5" rx="8.5" ry="7.5" fill="#9EA39B"/>
<ellipse cx="580" cy="65.5" rx="10" ry="8.5" fill="#9EA39B"/>
<ellipse cx="580" cy="123.5" rx="10" ry="7.5" fill="#9EA39B"/>
<circle cx="581.5" cy="84.5" r="8.5" fill="#9EA39B"/>
<ellipse cx="580" cy="47.5" rx="10" ry="7.5" fill="#9EA39B"/>
<ellipse cx="158.5" cy="140.5" rx="8.5" ry="7.5" fill="#9EA39B"/>
<ellipse cx="158.5" cy="102.5" rx="8.5" ry="7.5" fill="#75C4F0"/>
<circle cx="158.5" cy="65.5" r="8.5" fill="#71F022"/>
<ellipse cx="158.5" cy="123.5" rx="8.5" ry="7.5" fill="#9EA39B"/>
<circle cx="158.5" cy="84.5" r="8.5" fill="#75C4F0"/>
<ellipse cx="158.5" cy="47.5" rx="8.5" ry="7.5" fill="#71F022"/>
<ellipse cx="30.5" cy="140.5" rx="9.5" ry="7.5" fill="#9EA39B"/>
<ellipse cx="31.5" cy="102.5" rx="8.5" ry="7.5" fill="#9EA39B"/>
<ellipse cx="30.5" cy="123.5" rx="9.5" ry="7.5" fill="#9EA39B"/>
<circle cx="31.5" cy="84.5" r="8.5" fill="#9EA39B"/>
<ellipse cx="326.5" cy="140.5" rx="8.5" ry="7.5" fill="#75C4F0"/>
<ellipse cx="326.5" cy="102.5" rx="8.5" ry="7.5" fill="#9EA39B"/>
<circle cx="326.5" cy="65.5" r="8.5" fill="#9EA39B"/>
<ellipse cx="326.5" cy="123.5" rx="8.5" ry="7.5" fill="#75C4F0"/>
<circle cx="326.5" cy="84.5" r="8.5" fill="#9EA39B"/>
<ellipse cx="326.5" cy="47.5" rx="8.5" ry="7.5" fill="#9EA39B"/>
<ellipse cx="539.5" cy="140.5" rx="9.5" ry="7.5" fill="#9EA39B"/>
<ellipse cx="539.5" cy="102.5" rx="9.5" ry="7.5" fill="#9EA39B"/>
<ellipse cx="539.5" cy="65.5" rx="9.5" ry="8.5" fill="#9EA39B"/>
<ellipse cx="539.5" cy="123.5" rx="9.5" ry="7.5" fill="#9EA39B"/>
<ellipse cx="539.5" cy="84.5" rx="9.5" ry="8.5" fill="#9EA39B"/>
<ellipse cx="539.5" cy="47.5" rx="9.5" ry="7.5" fill="#9EA39B"/>
<ellipse cx="242.5" cy="140.5" rx="9.5" ry="7.5" fill="#9EA39B"/>
<ellipse cx="242.5" cy="102.5" rx="9.5" ry="7.5" fill="#75C4F0"/>
<ellipse cx="242.5" cy="65.5" rx="9.5" ry="8.5" fill="#71F022"/>
<ellipse cx="242.5" cy="123.5" rx="9.5" ry="7.5" fill="#9EA39B"/>
<ellipse cx="242.5" cy="84.5" rx="9.5" ry="8.5" fill="#75C4F0"/>
<ellipse cx="242.5" cy="47.5" rx="9.5" ry="7.5" fill="#71F022"/>
<ellipse cx="454.5" cy="102.5" rx="9.5" ry="7.5" fill="#75C4F0"/>
<circle cx="453.5" cy="65.5" r="8.5" fill="#71F022"/>
<ellipse cx="453.5" cy="123.5" rx="8.5" ry="7.5" fill="#9EA39B"/>
<ellipse cx="454.5" cy="84.5" rx="9.5" ry="8.5" fill="#75C4F0"/>
<ellipse cx="453.5" cy="47.5" rx="8.5" ry="7.5" fill="#71F022"/>
<ellipse cx="412.5" cy="140.5" rx="9.5" ry="7.5" fill="#9EA39B"/>
<ellipse cx="413.5" cy="102.5" rx="8.5" ry="7.5" fill="#75C4F0"/>
<ellipse cx="412.5" cy="65.5" rx="9.5" ry="8.5" fill="#71F022"/>
<ellipse cx="412.5" cy="123.5" rx="9.5" ry="7.5" fill="#9EA39B"/>
<circle cx="413.5" cy="84.5" r="8.5" fill="#75C4F0"/>
<ellipse cx="412.5" cy="47.5" rx="9.5" ry="7.5" fill="#9EA39B"/>
<ellipse cx="624.5" cy="140.5" rx="9.5" ry="7.5" fill="#9EA39B"/>
<ellipse cx="624.5" cy="123.5" rx="9.5" ry="7.5" fill="#75C4F0"/>
<circle cx="93.5" cy="365.5" r="8.5" fill="#9EA39B"/>
<ellipse cx="327.5" cy="367" rx="9.5" ry="7" fill="#9EA39B"/>
<ellipse cx="367.5" cy="367" rx="9.5" ry="7" fill="#9EA39B"/>
<ellipse cx="603.5" cy="365.5" rx="9.5" ry="8.5" fill="#9EA39B"/>
<ellipse cx="51.5" cy="366.5" rx="9.5" ry="7.5" fill="#9EA39B"/>
<ellipse cx="286.5" cy="368" rx="8.5" ry="8" fill="#9EA39B"/>
<ellipse cx="561.5" cy="366.5" rx="8.5" ry="7.5" fill="#9EA39B"/>
<circle cx="72.5" cy="365.5" r="8.5" fill="#9EA39B"/>
<ellipse cx="307.5" cy="367" rx="8.5" ry="7" fill="#9EA39B"/>
<ellipse cx="347.5" cy="367" rx="8.5" ry="7" fill="#75C4F0"/>
<ellipse cx="582.5" cy="365.5" rx="9.5" ry="8.5" fill="#9EA39B"/>
<ellipse cx="31.5" cy="366.5" rx="8.5" ry="7.5" fill="#9EA39B"/>
<ellipse cx="266.5" cy="368" rx="9.5" ry="8" fill="#75C4F0"/>
<ellipse cx="542.5" cy="366.5" rx="8.5" ry="7.5" fill="#75C4F0"/>
<ellipse cx="93.5" cy="254.5" rx="8.5" ry="7.5" fill="#9EA39B"/>
<ellipse cx="264" cy="254.5" rx="9" ry="7.5" fill="#9EA39B"/>
<ellipse cx="475.5" cy="254.5" rx="8.5" ry="7.5" fill="#71F022"/>
<ellipse cx="180.5" cy="254.5" rx="8.5" ry="7.5" fill="#9EA39B"/>
<ellipse cx="52.5" cy="254.5" rx="8.5" ry="7.5" fill="#9EA39B"/>
<ellipse cx="347.5" cy="254.5" rx="8.5" ry="7.5" fill="#9EA39B"/>
<ellipse cx="561.5" cy="254.5" rx="8.5" ry="7.5" fill="#9EA39B"/>
<ellipse cx="136.5" cy="254.5" rx="9.5" ry="7.5" fill="#71F022"/>
<ellipse cx="9.5" cy="254.5" rx="9.5" ry="7.5" fill="#9EA39B"/>
<ellipse cx="306.5" cy="254.5" rx="9.5" ry="7.5" fill="#9EA39B"/>
<ellipse cx="517.5" cy="254.5" rx="8.5" ry="7.5" fill="#71F022"/>
<ellipse cx="220.5" cy="254.5" rx="8.5" ry="7.5" fill="#9EA39B"/>
<ellipse cx="434.5" cy="254.5" rx="8.5" ry="7.5" fill="#71F022"/>
<ellipse cx="391.5" cy="254.5" rx="9.5" ry="7.5" fill="#9EA39B"/>
<ellipse cx="602.5" cy="254.5" rx="8.5" ry="7.5" fill="#9EA39B"/>
<ellipse cx="115.5" cy="254.5" rx="9.5" ry="7.5" fill="#71F022"/>
<ellipse cx="284.5" cy="254.5" rx="8.5" ry="7.5" fill="#9EA39B"/>
<ellipse cx="496.5" cy="254.5" rx="8.5" ry="7.5" fill="#71F022"/>
<ellipse cx="199.5" cy="254.5" rx="8.5" ry="7.5" fill="#9EA39B"/>
<ellipse cx="72.5" cy="254.5" rx="8.5" ry="7.5" fill="#9EA39B"/>
<ellipse cx="368.5" cy="254.5" rx="8.5" ry="7.5" fill="#9EA39B"/>
<ellipse cx="580" cy="254.5" rx="10" ry="7.5" fill="#9EA39B"/>
<ellipse cx="158.5" cy="254.5" rx="8.5" ry="7.5" fill="#71F022"/>
<ellipse cx="30.5" cy="254.5" rx="9.5" ry="7.5" fill="#9EA39B"/>
<ellipse cx="326.5" cy="254.5" rx="8.5" ry="7.5" fill="#9EA39B"/>
<ellipse cx="539.5" cy="254.5" rx="9.5" ry="7.5" fill="#9EA39B"/>
<ellipse cx="242.5" cy="254.5" rx="9.5" ry="7.5" fill="#9EA39B"/>
<ellipse cx="453.5" cy="254.5" rx="8.5" ry="7.5" fill="#9EA39B"/>
<ellipse cx="412.5" cy="254.5" rx="9.5" ry="7.5" fill="#71F022"/>
<ellipse cx="624.5" cy="254.5" rx="9.5" ry="7.5" fill="#9EA39B"/>
<ellipse cx="93.5" cy="478.5" rx="8.5" ry="7.5" fill="#FB20F2"/>
<ellipse cx="327.5" cy="480.5" rx="9.5" ry="7.5" fill="#9EA39B"/>
<ellipse cx="367.5" cy="480.5" rx="9.5" ry="7.5" fill="#9EA39B"/>
<ellipse cx="603.5" cy="478.5" rx="9.5" ry="7.5" fill="#9EA39B"/>
<ellipse cx="51.5" cy="479.5" rx="9.5" ry="6.5" fill="#9EA39B"/>
<ellipse cx="286.5" cy="480.5" rx="8.5" ry="7.5" fill="#9EA39B"/>
<ellipse cx="561.5" cy="479.5" rx="8.5" ry="6.5" fill="#9EA39B"/>
<ellipse cx="72.5" cy="478.5" rx="8.5" ry="7.5" fill="#FB20F2"/>
<ellipse cx="307.5" cy="480.5" rx="8.5" ry="7.5" fill="#FB20F2"/>
<ellipse cx="347.5" cy="480.5" rx="8.5" ry="7.5" fill="#FB20F2"/>
<ellipse cx="582.5" cy="478.5" rx="9.5" ry="7.5" fill="#9EA39B"/>
<ellipse cx="31.5" cy="479.5" rx="8.5" ry="6.5" fill="#FB20F2"/>
<ellipse cx="266.5" cy="480.5" rx="9.5" ry="7.5" fill="#9EA39B"/>
<ellipse cx="542.5" cy="479.5" rx="8.5" ry="6.5" fill="#FB20F2"/>
<circle cx="93.5" cy="196.5" r="8.5" fill="#75C4F0"/>
<ellipse cx="264" cy="196.5" rx="9" ry="8.5" fill="#75C4F0"/>
<circle cx="475.5" cy="196.5" r="8.5" fill="#9EA39B"/>
<circle cx="180.5" cy="196.5" r="8.5" fill="#75C4F0"/>
<circle cx="52.5" cy="196.5" r="8.5" fill="#9EA39B"/>
<circle cx="347.5" cy="196.5" r="8.5" fill="#75C4F0"/>
<circle cx="561.5" cy="196.5" r="8.5" fill="#9EA39B"/>
<ellipse cx="136.5" cy="196.5" rx="9.5" ry="8.5" fill="#75C4F0"/>
<ellipse cx="9.5" cy="196.5" rx="9.5" ry="8.5" fill="#9EA39B"/>
<ellipse cx="306.5" cy="196.5" rx="9.5" ry="8.5" fill="#75C4F0"/>
<circle cx="517.5" cy="196.5" r="8.5" fill="#9EA39B"/>
<circle cx="220.5" cy="196.5" r="8.5" fill="#75C4F0"/>
<circle cx="434.5" cy="196.5" r="8.5" fill="#9EA39B"/>
<ellipse cx="391.5" cy="196.5" rx="9.5" ry="8.5" fill="#9EA39B"/>
<circle cx="602.5" cy="196.5" r="8.5" fill="#9EA39B"/>
<ellipse cx="115.5" cy="196.5" rx="9.5" ry="8.5" fill="#75C4F0"/>
<circle cx="284.5" cy="196.5" r="8.5" fill="#75C4F0"/>
<circle cx="496.5" cy="196.5" r="8.5" fill="#9EA39B"/>
<circle cx="199.5" cy="196.5" r="8.5" fill="#75C4F0"/>
<circle cx="72.5" cy="196.5" r="8.5" fill="#75C4F0"/>
<circle cx="368.5" cy="196.5" r="8.5" fill="#75C4F0"/>
<ellipse cx="580" cy="196.5" rx="10" ry="8.5" fill="#75C4F0"/>
<circle cx="158.5" cy="196.5" r="8.5" fill="#75C4F0"/>
<ellipse cx="30.5" cy="196.5" rx="9.5" ry="8.5" fill="#75C4F0"/>
<circle cx="326.5" cy="196.5" r="8.5" fill="#75C4F0"/>
<ellipse cx="539.5" cy="196.5" rx="9.5" ry="8.5" fill="#9EA39B"/>
<ellipse cx="242.5" cy="196.5" rx="9.5" ry="8.5" fill="#75C4F0"/>
<circle cx="453.5" cy="196.5" r="8.5" fill="#9EA39B"/>
<ellipse cx="412.5" cy="196.5" rx="9.5" ry="8.5" fill="#9EA39B"/>
<ellipse cx="624.5" cy="196.5" rx="9.5" ry="8.5" fill="#75C4F0"/>
<ellipse cx="93.5" cy="423.5" rx="8.5" ry="7.5" fill="#9EA39B"/>
<ellipse cx="327.5" cy="423.5" rx="9.5" ry="7.5" fill="#FB20F2"/>
<ellipse cx="367.5" cy="423.5" rx="9.5" ry="7.5" fill="#9EA39B"/>
<ellipse cx="603.5" cy="423.5" rx="9.5" ry="7.5" fill="#9EA39B"/>
<ellipse cx="51.5" cy="423.5" rx="9.5" ry="7.5" fill="#9EA39B"/>
<ellipse cx="286.5" cy="423.5" rx="8.5" ry="7.5" fill="#9EA39B"/>
<ellipse cx="561.5" cy="423.5" rx="8.5" ry="7.5" fill="#9EA39B"/>
<ellipse cx="72.5" cy="423.5" rx="8.5" ry="7.5" fill="#9EA39B"/>
<ellipse cx="307.5" cy="423.5" rx="8.5" ry="7.5" fill="#FB20F2"/>
<ellipse cx="347.5" cy="423.5" rx="8.5" ry="7.5" fill="#9EA39B"/>
<ellipse cx="582.5" cy="423.5" rx="9.5" ry="7.5" fill="#9EA39B"/>
<ellipse cx="31.5" cy="423.5" rx="8.5" ry="7.5" fill="#9EA39B"/>
<ellipse cx="266.5" cy="423.5" rx="9.5" ry="7.5" fill="#9EA39B"/>
<ellipse cx="542.5" cy="423.5" rx="8.5" ry="7.5" fill="#FB20F2"/>
<ellipse cx="93.5" cy="309.5" rx="8.5" ry="7.5" fill="#9EA39B"/>
<ellipse cx="264" cy="309.5" rx="9" ry="7.5" fill="#9EA39B"/>
<ellipse cx="475.5" cy="309.5" rx="8.5" ry="7.5" fill="#9EA39B"/>
<ellipse cx="180.5" cy="309.5" rx="8.5" ry="7.5" fill="#9EA39B"/>
<ellipse cx="52.5" cy="309.5" rx="8.5" ry="7.5" fill="#9EA39B"/>
<ellipse cx="347.5" cy="309.5" rx="8.5" ry="7.5" fill="#9EA39B"/>
<ellipse cx="561.5" cy="309.5" rx="8.5" ry="7.5" fill="#FB20F2"/>
<ellipse cx="136.5" cy="309.5" rx="9.5" ry="7.5" fill="#FB20F2"/>
<ellipse cx="9.5" cy="309.5" rx="9.5" ry="7.5" fill="#9EA39B"/>
<ellipse cx="306.5" cy="309.5" rx="9.5" ry="7.5" fill="#9EA39B"/>
<ellipse cx="517.5" cy="309.5" rx="8.5" ry="7.5" fill="#FB20F2"/>
<ellipse cx="220.5" cy="309.5" rx="8.5" ry="7.5" fill="#9EA39B"/>
<ellipse cx="434.5" cy="309.5" rx="8.5" ry="7.5" fill="#9EA39B"/>
<ellipse cx="391.5" cy="309.5" rx="9.5" ry="7.5" fill="#9EA39B"/>
<ellipse cx="602.5" cy="309.5" rx="8.5" ry="7.5" fill="#FB20F2"/>
<ellipse cx="115.5" cy="309.5" rx="9.5" ry="7.5" fill="#FB20F2"/>
<ellipse cx="284.5" cy="309.5" rx="8.5" ry="7.5" fill="#9EA39B"/>
<ellipse cx="496.5" cy="309.5" rx="8.5" ry="7.5" fill="#9EA39B"/>
<ellipse cx="199.5" cy="309.5" rx="8.5" ry="7.5" fill="#9EA39B"/>
<ellipse cx="72.5" cy="309.5" rx="8.5" ry="7.5" fill="#9EA39B"/>
<ellipse cx="368.5" cy="309.5" rx="8.5" ry="7.5" fill="#9EA39B"/>
<ellipse cx="580" cy="309.5" rx="10" ry="7.5" fill="#FB20F2"/>
<ellipse cx="158.5" cy="309.5" rx="8.5" ry="7.5" fill="#FB20F2"/>
<ellipse cx="30.5" cy="309.5" rx="9.5" ry="7.5" fill="#9EA39B"/>
<ellipse cx="326.5" cy="309.5" rx="8.5" ry="7.5" fill="#9EA39B"/>
<ellipse cx="539.5" cy="309.5" rx="9.5" ry="7.5" fill="#FB20F2"/>
<ellipse cx="242.5" cy="309.5" rx="9.5" ry="7.5" fill="#9EA39B"/>
<ellipse cx="453.5" cy="309.5" rx="8.5" ry="7.5" fill="#9EA39B"/>
<ellipse cx="412.5" cy="309.5" rx="9.5" ry="7.5" fill="#9EA39B"/>
<ellipse cx="624.5" cy="309.5" rx="9.5" ry="7.5" fill="#FB20F2"/>
<circle cx="93.5" cy="160.5" r="8.5" fill="#9EA39B"/>
<ellipse cx="264" cy="160.5" rx="9" ry="8.5" fill="#9EA39B"/>
<circle cx="475.5" cy="160.5" r="8.5" fill="#9EA39B"/>
<circle cx="180.5" cy="160.5" r="8.5" fill="#9EA39B"/>
<circle cx="52.5" cy="160.5" r="8.5" fill="#75C4F0"/>
<circle cx="347.5" cy="160.5" r="8.5" fill="#75C4F0"/>
<circle cx="561.5" cy="160.5" r="8.5" fill="#9EA39B"/>
<ellipse cx="136.5" cy="160.5" rx="9.5" ry="8.5" fill="#9EA39B"/>
<ellipse cx="9.5" cy="160.5" rx="9.5" ry="8.5" fill="#75C4F0"/>
<ellipse cx="306.5" cy="160.5" rx="9.5" ry="8.5" fill="#75C4F0"/>
<circle cx="517.5" cy="160.5" r="8.5" fill="#9EA39B"/>
<circle cx="220.5" cy="160.5" r="8.5" fill="#75C4F0"/>
<circle cx="434.5" cy="160.5" r="8.5" fill="#9EA39B"/>
<ellipse cx="391.5" cy="160.5" rx="9.5" ry="8.5" fill="#9EA39B"/>
<circle cx="602.5" cy="160.5" r="8.5" fill="#9EA39B"/>
<ellipse cx="115.5" cy="160.5" rx="9.5" ry="8.5" fill="#9EA39B"/>
<circle cx="284.5" cy="160.5" r="8.5" fill="#75C4F0"/>
<circle cx="496.5" cy="160.5" r="8.5" fill="#9EA39B"/>
<circle cx="199.5" cy="160.5" r="8.5" fill="#75C4F0"/>
<circle cx="72.5" cy="160.5" r="8.5" fill="#9EA39B"/>
<circle cx="368.5" cy="160.5" r="8.5" fill="#9EA39B"/>
<ellipse cx="580" cy="160.5" rx="10" ry="8.5" fill="#9EA39B"/>
<circle cx="158.5" cy="160.5" r="8.5" fill="#9EA39B"/>
<ellipse cx="30.5" cy="160.5" rx="9.5" ry="8.5" fill="#75C4F0"/>
<circle cx="326.5" cy="160.5" r="8.5" fill="#75C4F0"/>
<ellipse cx="539.5" cy="160.5" rx="9.5" ry="8.5" fill="#9EA39B"/>
<ellipse cx="242.5" cy="160.5" rx="9.5" ry="8.5" fill="#75C4F0"/>
<circle cx="453.5" cy="160.5" r="8.5" fill="#9EA39B"/>
<ellipse cx="412.5" cy="160.5" rx="9.5" ry="8.5" fill="#9EA39B"/>
<ellipse cx="624.5" cy="160.5" rx="9.5" ry="8.5" fill="#75C4F0"/>
<ellipse cx="93.5" cy="385.5" rx="8.5" ry="7.5" fill="#9EA39B"/>
<ellipse cx="327.5" cy="386.5" rx="9.5" ry="8.5" fill="#75C4F0"/>
<ellipse cx="367.5" cy="386.5" rx="9.5" ry="8.5" fill="#9EA39B"/>
<ellipse cx="603.5" cy="385.5" rx="9.5" ry="7.5" fill="#9EA39B"/>
<ellipse cx="51.5" cy="385.5" rx="9.5" ry="7.5" fill="#9EA39B"/>
<circle cx="286.5" cy="386.5" r="8.5" fill="#75C4F0"/>
<ellipse cx="561.5" cy="385.5" rx="8.5" ry="7.5" fill="#9EA39B"/>
<ellipse cx="72.5" cy="385.5" rx="8.5" ry="7.5" fill="#9EA39B"/>
<circle cx="307.5" cy="386.5" r="8.5" fill="#75C4F0"/>
<circle cx="347.5" cy="386.5" r="8.5" fill="#75C4F0"/>
<ellipse cx="582.5" cy="385.5" rx="9.5" ry="7.5" fill="#9EA39B"/>
<ellipse cx="31.5" cy="385.5" rx="8.5" ry="7.5" fill="#9EA39B"/>
<ellipse cx="266.5" cy="386.5" rx="9.5" ry="8.5" fill="#75C4F0"/>
<ellipse cx="542.5" cy="385.5" rx="8.5" ry="7.5" fill="#75C4F0"/>
<ellipse cx="93.5" cy="271.5" rx="8.5" ry="7.5" fill="#9EA39B"/>
<ellipse cx="264" cy="271.5" rx="9" ry="7.5" fill="#9EA39B"/>
<ellipse cx="475.5" cy="271.5" rx="8.5" ry="7.5" fill="#9EA39B"/>
<ellipse cx="180.5" cy="271.5" rx="8.5" ry="7.5" fill="#9EA39B"/>
<ellipse cx="52.5" cy="271.5" rx="8.5" ry="7.5" fill="#9EA39B"/>
<ellipse cx="347.5" cy="271.5" rx="8.5" ry="7.5" fill="#9EA39B"/>
<ellipse cx="561.5" cy="271.5" rx="8.5" ry="7.5" fill="#9EA39B"/>
<ellipse cx="136.5" cy="271.5" rx="9.5" ry="7.5" fill="#9EA39B"/>
<ellipse cx="9.5" cy="271.5" rx="9.5" ry="7.5" fill="#9EA39B"/>
<ellipse cx="306.5" cy="271.5" rx="9.5" ry="7.5" fill="#9EA39B"/>
<ellipse cx="517.5" cy="271.5" rx="8.5" ry="7.5" fill="#9EA39B"/>
<ellipse cx="220.5" cy="271.5" rx="8.5" ry="7.5" fill="#9EA39B"/>
<ellipse cx="434.5" cy="271.5" rx="8.5" ry="7.5" fill="#9EA39B"/>
<ellipse cx="391.5" cy="271.5" rx="9.5" ry="7.5" fill="#9EA39B"/>
<ellipse cx="602.5" cy="271.5" rx="8.5" ry="7.5" fill="#9EA39B"/>
<ellipse cx="115.5" cy="271.5" rx="9.5" ry="7.5" fill="#71F022"/>
<ellipse cx="284.5" cy="271.5" rx="8.5" ry="7.5" fill="#9EA39B"/>
<ellipse cx="496.5" cy="271.5" rx="8.5" ry="7.5" fill="#71F022"/>
<ellipse cx="199.5" cy="271.5" rx="8.5" ry="7.5" fill="#9EA39B"/>
<ellipse cx="72.5" cy="271.5" rx="8.5" ry="7.5" fill="#9EA39B"/>
<ellipse cx="368.5" cy="271.5" rx="8.5" ry="7.5" fill="#9EA39B"/>
<ellipse cx="580" cy="271.5" rx="10" ry="7.5" fill="#9EA39B"/>
<ellipse cx="158.5" cy="271.5" rx="8.5" ry="7.5" fill="#9EA39B"/>
<ellipse cx="30.5" cy="271.5" rx="9.5" ry="7.5" fill="#9EA39B"/>
<ellipse cx="326.5" cy="271.5" rx="8.5" ry="7.5" fill="#9EA39B"/>
<ellipse cx="539.5" cy="271.5" rx="9.5" ry="7.5" fill="#9EA39B"/>
<ellipse cx="242.5" cy="271.5" rx="9.5" ry="7.5" fill="#9EA39B"/>
<ellipse cx="453.5" cy="271.5" rx="8.5" ry="7.5" fill="#71F022"/>
<ellipse cx="412.5" cy="271.5" rx="9.5" ry="7.5" fill="#9EA39B"/>
<ellipse cx="624.5" cy="271.5" rx="9.5" ry="7.5" fill="#9EA39B"/>
<circle cx="93.5" cy="498.5" r="8.5" fill="#9EA39B"/>
<ellipse cx="327.5" cy="499.5" rx="9.5" ry="7.5" fill="#FB20F2"/>
<ellipse cx="367.5" cy="499.5" rx="9.5" ry="7.5" fill="#FB20F2"/>
<ellipse cx="603.5" cy="498.5" rx="9.5" ry="8.5" fill="#9EA39B"/>
<ellipse cx="51.5" cy="498.5" rx="9.5" ry="8.5" fill="#9EA39B"/>
<ellipse cx="286.5" cy="500" rx="8.5" ry="7" fill="#9EA39B"/>
<circle cx="561.5" cy="498.5" r="8.5" fill="#9EA39B"/>
<circle cx="72.5" cy="498.5" r="8.5" fill="#FB20F2"/>
<ellipse cx="307.5" cy="499.5" rx="8.5" ry="7.5" fill="#9EA39B"/>
<ellipse cx="347.5" cy="499.5" rx="8.5" ry="7.5" fill="#FB20F2"/>
<ellipse cx="582.5" cy="498.5" rx="9.5" ry="8.5" fill="#9EA39B"/>
<circle cx="31.5" cy="498.5" r="8.5" fill="#FB20F2"/>
<ellipse cx="266.5" cy="500" rx="9.5" ry="7" fill="#9EA39B"/>
<circle cx="542.5" cy="498.5" r="8.5" fill="#FB20F2"/>
<ellipse cx="93.5" cy="216.5" rx="8.5" ry="7.5" fill="#75C4F0"/>
<ellipse cx="264" cy="216.5" rx="9" ry="7.5" fill="#9EA39B"/>
<ellipse cx="475.5" cy="216.5" rx="8.5" ry="7.5" fill="#9EA39B"/>
<ellipse cx="180.5" cy="216.5" rx="8.5" ry="7.5" fill="#9EA39B"/>
<ellipse cx="52.5" cy="216.5" rx="8.5" ry="7.5" fill="#75C4F0"/>
<ellipse cx="347.5" cy="216.5" rx="8.5" ry="7.5" fill="#9EA39B"/>
<ellipse cx="561.5" cy="216.5" rx="8.5" ry="7.5" fill="#9EA39B"/>
<ellipse cx="136.5" cy="216.5" rx="9.5" ry="7.5" fill="#75C4F0"/>
<ellipse cx="9.5" cy="216.5" rx="9.5" ry="7.5" fill="#75C4F0"/>
<ellipse cx="306.5" cy="216.5" rx="9.5" ry="7.5" fill="#9EA39B"/>
<ellipse cx="517.5" cy="216.5" rx="8.5" ry="7.5" fill="#9EA39B"/>
<ellipse cx="220.5" cy="216.5" rx="8.5" ry="7.5" fill="#9EA39B"/>
<ellipse cx="434.5" cy="216.5" rx="8.5" ry="7.5" fill="#9EA39B"/>
<ellipse cx="391.5" cy="216.5" rx="9.5" ry="7.5" fill="#9EA39B"/>
<ellipse cx="602.5" cy="216.5" rx="8.5" ry="7.5" fill="#9EA39B"/>
<ellipse cx="115.5" cy="216.5" rx="9.5" ry="7.5" fill="#75C4F0"/>
<ellipse cx="284.5" cy="216.5" rx="8.5" ry="7.5" fill="#9EA39B"/>
<ellipse cx="496.5" cy="216.5" rx="8.5" ry="7.5" fill="#9EA39B"/>
<ellipse cx="199.5" cy="216.5" rx="8.5" ry="7.5" fill="#9EA39B"/>
<ellipse cx="72.5" cy="216.5" rx="8.5" ry="7.5" fill="#75C4F0"/>
<ellipse cx="368.5" cy="216.5" rx="8.5" ry="7.5" fill="#9EA39B"/>
<ellipse cx="580" cy="216.5" rx="10" ry="7.5" fill="#75C4F0"/>
<ellipse cx="158.5" cy="216.5" rx="8.5" ry="7.5" fill="#75C4F0"/>
<ellipse cx="30.5" cy="216.5" rx="9.5" ry="7.5" fill="#75C4F0"/>
<ellipse cx="326.5" cy="216.5" rx="8.5" ry="7.5" fill="#9EA39B"/>
<ellipse cx="539.5" cy="216.5" rx="9.5" ry="7.5" fill="#9EA39B"/>
<ellipse cx="242.5" cy="216.5" rx="9.5" ry="7.5" fill="#9EA39B"/>
<ellipse cx="453.5" cy="216.5" rx="8.5" ry="7.5" fill="#9EA39B"/>
<ellipse cx="412.5" cy="216.5" rx="9.5" ry="7.5" fill="#9EA39B"/>
<ellipse cx="624.5" cy="216.5" rx="9.5" ry="7.5" fill="#75C4F0"/>
<circle cx="93.5" cy="441.5" r="8.5" fill="#FB20F2"/>
<ellipse cx="327.5" cy="442.5" rx="9.5" ry="7.5" fill="#FB20F2"/>
<ellipse cx="367.5" cy="442.5" rx="9.5" ry="7.5" fill="#9EA39B"/>
<ellipse cx="603.5" cy="441.5" rx="9.5" ry="8.5" fill="#9EA39B"/>
<ellipse cx="51.5" cy="441.5" rx="9.5" ry="8.5" fill="#FB20F2"/>
<ellipse cx="286.5" cy="444" rx="8.5" ry="8" fill="#9EA39B"/>
<circle cx="561.5" cy="441.5" r="8.5" fill="#9EA39B"/>
<circle cx="72.5" cy="441.5" r="8.5" fill="#FB20F2"/>
<ellipse cx="307.5" cy="442.5" rx="8.5" ry="7.5" fill="#FB20F2"/>
<ellipse cx="347.5" cy="442.5" rx="8.5" ry="7.5" fill="#FB20F2"/>
<ellipse cx="582.5" cy="441.5" rx="9.5" ry="8.5" fill="#9EA39B"/>
<circle cx="31.5" cy="441.5" r="8.5" fill="#FB20F2"/>
<ellipse cx="266.5" cy="444" rx="9.5" ry="8" fill="#9EA39B"/>
<circle cx="542.5" cy="441.5" r="8.5" fill="#FB20F2"/>
<circle cx="93.5" cy="329.5" r="8.5" fill="#9EA39B"/>
<ellipse cx="264" cy="329.5" rx="9" ry="8.5" fill="#9EA39B"/>
<circle cx="475.5" cy="329.5" r="8.5" fill="#9EA39B"/>
<circle cx="180.5" cy="329.5" r="8.5" fill="#9EA39B"/>
<circle cx="52.5" cy="329.5" r="8.5" fill="#9EA39B"/>
<circle cx="347.5" cy="329.5" r="8.5" fill="#9EA39B"/>
<circle cx="561.5" cy="329.5" r="8.5" fill="#9EA39B"/>
<ellipse cx="136.5" cy="329.5" rx="9.5" ry="8.5" fill="#FB20F2"/>
<ellipse cx="9.5" cy="329.5" rx="9.5" ry="8.5" fill="#9EA39B"/>
<ellipse cx="306.5" cy="329.5" rx="9.5" ry="8.5" fill="#9EA39B"/>
<circle cx="517.5" cy="329.5" r="8.5" fill="#FB20F2"/>
<circle cx="220.5" cy="329.5" r="8.5" fill="#9EA39B"/>
<circle cx="434.5" cy="329.5" r="8.5" fill="#9EA39B"/>
<ellipse cx="391.5" cy="329.5" rx="9.5" ry="8.5" fill="#9EA39B"/>
<circle cx="602.5" cy="329.5" r="8.5" fill="#9EA39B"/>
<ellipse cx="115.5" cy="329.5" rx="9.5" ry="8.5" fill="#FB20F2"/>
<circle cx="284.5" cy="329.5" r="8.5" fill="#9EA39B"/>
<circle cx="496.5" cy="329.5" r="8.5" fill="#9EA39B"/>
<circle cx="199.5" cy="329.5" r="8.5" fill="#9EA39B"/>
<circle cx="72.5" cy="329.5" r="8.5" fill="#9EA39B"/>
<circle cx="368.5" cy="329.5" r="8.5" fill="#9EA39B"/>
<ellipse cx="580" cy="329.5" rx="10" ry="8.5" fill="#9EA39B"/>
<circle cx="158.5" cy="329.5" r="8.5" fill="#FB20F2"/>
<ellipse cx="30.5" cy="329.5" rx="9.5" ry="8.5" fill="#9EA39B"/>
<circle cx="326.5" cy="329.5" r="8.5" fill="#9EA39B"/>
<ellipse cx="539.5" cy="329.5" rx="9.5" ry="8.5" fill="#FB20F2"/>
<ellipse cx="242.5" cy="329.5" rx="9.5" ry="8.5" fill="#9EA39B"/>
<circle cx="453.5" cy="329.5" r="8.5" fill="#9EA39B"/>
<ellipse cx="412.5" cy="329.5" rx="9.5" ry="8.5" fill="#9EA39B"/>
<ellipse cx="624.5" cy="329.5" rx="9.5" ry="8.5" fill="#9EA39B"/>
<ellipse cx="93.5" cy="178.5" rx="8.5" ry="7.5" fill="#9EA39B"/>
<ellipse cx="264" cy="178.5" rx="9" ry="7.5" fill="#75C4F0"/>
<ellipse cx="475.5" cy="178.5" rx="8.5" ry="7.5" fill="#9EA39B"/>
<ellipse cx="180.5" cy="178.5" rx="8.5" ry="7.5" fill="#9EA39B"/>
<ellipse cx="52.5" cy="178.5" rx="8.5" ry="7.5" fill="#75C4F0"/>
<ellipse cx="347.5" cy="178.5" rx="8.5" ry="7.5" fill="#75C4F0"/>
<ellipse cx="561.5" cy="178.5" rx="8.5" ry="7.5" fill="#9EA39B"/>
<ellipse cx="136.5" cy="178.5" rx="9.5" ry="7.5" fill="#9EA39B"/>
<ellipse cx="9.5" cy="178.5" rx="9.5" ry="7.5" fill="#75C4F0"/>
<ellipse cx="306.5" cy="178.5" rx="9.5" ry="7.5" fill="#75C4F0"/>
<ellipse cx="517.5" cy="178.5" rx="8.5" ry="7.5" fill="#9EA39B"/>
<ellipse cx="220.5" cy="178.5" rx="8.5" ry="7.5" fill="#75C4F0"/>
<ellipse cx="434.5" cy="178.5" rx="8.5" ry="7.5" fill="#9EA39B"/>
<ellipse cx="391.5" cy="178.5" rx="9.5" ry="7.5" fill="#9EA39B"/>
<ellipse cx="602.5" cy="178.5" rx="8.5" ry="7.5" fill="#75C4F0"/>
<ellipse cx="115.5" cy="178.5" rx="9.5" ry="7.5" fill="#9EA39B"/>
<ellipse cx="284.5" cy="178.5" rx="8.5" ry="7.5" fill="#75C4F0"/>
<ellipse cx="496.5" cy="178.5" rx="8.5" ry="7.5" fill="#9EA39B"/>
<ellipse cx="199.5" cy="178.5" rx="8.5" ry="7.5" fill="#75C4F0"/>
<ellipse cx="72.5" cy="178.5" rx="8.5" ry="7.5" fill="#9EA39B"/>
<ellipse cx="368.5" cy="178.5" rx="8.5" ry="7.5" fill="#75C4F0"/>
<ellipse cx="580" cy="178.5" rx="10" ry="7.5" fill="#75C4F0"/>
<ellipse cx="158.5" cy="178.5" rx="8.5" ry="7.5" fill="#9EA39B"/>
<ellipse cx="30.5" cy="178.5" rx="9.5" ry="7.5" fill="#75C4F0"/>
<ellipse cx="326.5" cy="178.5" rx="8.5" ry="7.5" fill="#75C4F0"/>
<ellipse cx="539.5" cy="178.5" rx="9.5" ry="7.5" fill="#9EA39B"/>
<ellipse cx="242.5" cy="178.5" rx="9.5" ry="7.5" fill="#75C4F0"/>
<ellipse cx="453.5" cy="178.5" rx="8.5" ry="7.5" fill="#9EA39B"/>
<ellipse cx="412.5" cy="178.5" rx="9.5" ry="7.5" fill="#9EA39B"/>
<ellipse cx="624.5" cy="178.5" rx="9.5" ry="7.5" fill="#75C4F0"/>
<ellipse cx="93.5" cy="402.5" rx="8.5" ry="7.5" fill="#9EA39B"/>
<ellipse cx="327.5" cy="404.5" rx="9.5" ry="7.5" fill="#75C4F0"/>
<ellipse cx="367.5" cy="404.5" rx="9.5" ry="7.5" fill="#9EA39B"/>
<ellipse cx="603.5" cy="402.5" rx="9.5" ry="7.5" fill="#9EA39B"/>
<ellipse cx="51.5" cy="404.5" rx="9.5" ry="7.5" fill="#9EA39B"/>
<circle cx="286.5" cy="405.5" r="8.5" fill="#75C4F0"/>
<ellipse cx="561.5" cy="403.5" rx="8.5" ry="6.5" fill="#9EA39B"/>
<ellipse cx="72.5" cy="402.5" rx="8.5" ry="7.5" fill="#9EA39B"/>
<ellipse cx="307.5" cy="404.5" rx="8.5" ry="7.5" fill="#75C4F0"/>
<ellipse cx="347.5" cy="404.5" rx="8.5" ry="7.5" fill="#75C4F0"/>
<ellipse cx="582.5" cy="402.5" rx="9.5" ry="7.5" fill="#9EA39B"/>
<ellipse cx="31.5" cy="404.5" rx="8.5" ry="7.5" fill="#9EA39B"/>
<ellipse cx="266.5" cy="405.5" rx="9.5" ry="8.5" fill="#75C4F0"/>
<ellipse cx="542.5" cy="403.5" rx="8.5" ry="6.5" fill="#75C4F0"/>
<ellipse cx="93.5" cy="292.5" rx="8.5" ry="7.5" fill="#9EA39B"/>
<ellipse cx="264" cy="292.5" rx="9" ry="7.5" fill="#9EA39B"/>
<ellipse cx="475.5" cy="292.5" rx="8.5" ry="7.5" fill="#FB20F2"/>
<ellipse cx="180.5" cy="292.5" rx="8.5" ry="7.5" fill="#9EA39B"/>
<ellipse cx="52.5" cy="292.5" rx="8.5" ry="7.5" fill="#9EA39B"/>
<ellipse cx="347.5" cy="292.5" rx="8.5" ry="7.5" fill="#9EA39B"/>
<ellipse cx="561.5" cy="292.5" rx="8.5" ry="7.5" fill="#9EA39B"/>
<ellipse cx="136.5" cy="292.5" rx="9.5" ry="7.5" fill="#FB20F2"/>
<ellipse cx="9.5" cy="292.5" rx="9.5" ry="7.5" fill="#9EA39B"/>
<ellipse cx="306.5" cy="292.5" rx="9.5" ry="7.5" fill="#9EA39B"/>
<ellipse cx="517.5" cy="292.5" rx="8.5" ry="7.5" fill="#FB20F2"/>
<ellipse cx="220.5" cy="292.5" rx="8.5" ry="7.5" fill="#9EA39B"/>
<ellipse cx="434.5" cy="292.5" rx="8.5" ry="7.5" fill="#FB20F2"/>
<ellipse cx="391.5" cy="292.5" rx="9.5" ry="7.5" fill="#9EA39B"/>
<ellipse cx="602.5" cy="292.5" rx="8.5" ry="7.5" fill="#9EA39B"/>
<ellipse cx="115.5" cy="292.5" rx="9.5" ry="7.5" fill="#FB20F2"/>
<ellipse cx="284.5" cy="292.5" rx="8.5" ry="7.5" fill="#9EA39B"/>
<ellipse cx="496.5" cy="292.5" rx="8.5" ry="7.5" fill="#FB20F2"/>
<ellipse cx="199.5" cy="292.5" rx="8.5" ry="7.5" fill="#9EA39B"/>
<ellipse cx="72.5" cy="292.5" rx="8.5" ry="7.5" fill="#9EA39B"/>
<ellipse cx="368.5" cy="292.5" rx="8.5" ry="7.5" fill="#9EA39B"/>
<ellipse cx="580" cy="292.5" rx="10" ry="7.5" fill="#9EA39B"/>
<ellipse cx="158.5" cy="292.5" rx="8.5" ry="7.5" fill="#FB20F2"/>
<ellipse cx="30.5" cy="292.5" rx="9.5" ry="7.5" fill="#9EA39B"/>
<ellipse cx="326.5" cy="292.5" rx="8.5" ry="7.5" fill="#9EA39B"/>
<ellipse cx="539.5" cy="292.5" rx="9.5" ry="7.5" fill="#9EA39B"/>
<ellipse cx="242.5" cy="292.5" rx="9.5" ry="7.5" fill="#9EA39B"/>
<ellipse cx="453.5" cy="292.5" rx="8.5" ry="7.5" fill="#FB20F2"/>
<ellipse cx="412.5" cy="292.5" rx="9.5" ry="7.5" fill="#FB20F2"/>
<ellipse cx="624.5" cy="292.5" rx="9.5" ry="7.5" fill="#9EA39B"/>
<circle cx="93.5" cy="517.5" r="8.5" fill="#FB20F2"/>
<ellipse cx="327.5" cy="518" rx="9.5" ry="8" fill="#FB20F2"/>
<ellipse cx="367.5" cy="518" rx="9.5" ry="8" fill="#FB20F2"/>
<ellipse cx="603.5" cy="517.5" rx="9.5" ry="8.5" fill="#9EA39B"/>
<ellipse cx="51.5" cy="517.5" rx="9.5" ry="8.5" fill="#FB20F2"/>
<ellipse cx="286.5" cy="518" rx="8.5" ry="8" fill="#9EA39B"/>
<circle cx="561.5" cy="517.5" r="8.5" fill="#9EA39B"/>
<circle cx="72.5" cy="517.5" r="8.5" fill="#FB20F2"/>
<ellipse cx="307.5" cy="518" rx="8.5" ry="8" fill="#FB20F2"/>
<ellipse cx="347.5" cy="518" rx="8.5" ry="8" fill="#FB20F2"/>
<ellipse cx="582.5" cy="517.5" rx="9.5" ry="8.5" fill="#9EA39B"/>
<circle cx="31.5" cy="517.5" r="8.5" fill="#FB20F2"/>
<circle cx="8.5" cy="517.5" r="8.5" fill="#FB20F2"/>
<ellipse cx="242.5" cy="518" rx="9.5" ry="8" fill="#9EA39B"/>
<ellipse cx="389.5" cy="517.5" rx="9.5" ry="8.5" fill="#FB20F2"/>
<circle cx="625.5" cy="517.5" r="8.5" fill="#9EA39B"/>
<ellipse cx="266.5" cy="518" rx="9.5" ry="8" fill="#9EA39B"/>
<circle cx="542.5" cy="517.5" r="8.5" fill="#FB20F2"/>
<ellipse cx="93.5" cy="233.5" rx="8.5" ry="7.5" fill="#9EA39B"/>
<ellipse cx="264" cy="233.5" rx="9" ry="7.5" fill="#9EA39B"/>
<ellipse cx="475.5" cy="233.5" rx="8.5" ry="7.5" fill="#71F022"/>
<ellipse cx="180.5" cy="233.5" rx="8.5" ry="7.5" fill="#9EA39B"/>
<ellipse cx="52.5" cy="233.5" rx="8.5" ry="7.5" fill="#9EA39B"/>
<ellipse cx="347.5" cy="233.5" rx="8.5" ry="7.5" fill="#9EA39B"/>
<ellipse cx="561.5" cy="233.5" rx="8.5" ry="7.5" fill="#9EA39B"/>
<ellipse cx="136.5" cy="233.5" rx="9.5" ry="7.5" fill="#71F022"/>
<ellipse cx="9.5" cy="233.5" rx="9.5" ry="7.5" fill="#9EA39B"/>
<ellipse cx="306.5" cy="233.5" rx="9.5" ry="7.5" fill="#9EA39B"/>
<ellipse cx="517.5" cy="233.5" rx="8.5" ry="7.5" fill="#71F022"/>
<ellipse cx="220.5" cy="233.5" rx="8.5" ry="7.5" fill="#9EA39B"/>
<ellipse cx="434.5" cy="233.5" rx="8.5" ry="7.5" fill="#71F022"/>
<ellipse cx="391.5" cy="233.5" rx="9.5" ry="7.5" fill="#9EA39B"/>
<ellipse cx="602.5" cy="233.5" rx="8.5" ry="7.5" fill="#9EA39B"/>
<ellipse cx="115.5" cy="233.5" rx="9.5" ry="7.5" fill="#71F022"/>
<ellipse cx="284.5" cy="233.5" rx="8.5" ry="7.5" fill="#9EA39B"/>
<ellipse cx="496.5" cy="233.5" rx="8.5" ry="7.5" fill="#71F022"/>
<ellipse cx="199.5" cy="233.5" rx="8.5" ry="7.5" fill="#9EA39B"/>
<ellipse cx="72.5" cy="233.5" rx="8.5" ry="7.5" fill="#9EA39B"/>
<ellipse cx="368.5" cy="233.5" rx="8.5" ry="7.5" fill="#9EA39B"/>
<ellipse cx="580" cy="233.5" rx="10" ry="7.5" fill="#9EA39B"/>
<ellipse cx="158.5" cy="233.5" rx="8.5" ry="7.5" fill="#71F022"/>
<ellipse cx="30.5" cy="233.5" rx="9.5" ry="7.5" fill="#9EA39B"/>
<ellipse cx="326.5" cy="233.5" rx="8.5" ry="7.5" fill="#9EA39B"/>
<ellipse cx="539.5" cy="233.5" rx="9.5" ry="7.5" fill="#9EA39B"/>
<ellipse cx="242.5" cy="233.5" rx="9.5" ry="7.5" fill="#9EA39B"/>
<ellipse cx="453.5" cy="233.5" rx="8.5" ry="7.5" fill="#71F022"/>
<ellipse cx="412.5" cy="233.5" rx="9.5" ry="7.5" fill="#71F022"/>
<ellipse cx="624.5" cy="233.5" rx="9.5" ry="7.5" fill="#9EA39B"/>
<circle cx="93.5" cy="460.5" r="8.5" fill="#FB20F2"/>
<ellipse cx="327.5" cy="461.5" rx="9.5" ry="7.5" fill="#FB20F2"/>
<ellipse cx="367.5" cy="461.5" rx="9.5" ry="7.5" fill="#FB20F2"/>
<ellipse cx="603.5" cy="460.5" rx="9.5" ry="8.5" fill="#9EA39B"/>
<ellipse cx="51.5" cy="461.5" rx="9.5" ry="7.5" fill="#FB20F2"/>
<ellipse cx="286.5" cy="461.5" rx="8.5" ry="7.5" fill="#9EA39B"/>
<circle cx="561.5" cy="460.5" r="8.5" fill="#9EA39B"/>
<circle cx="72.5" cy="460.5" r="8.5" fill="#FB20F2"/>
<ellipse cx="307.5" cy="461.5" rx="8.5" ry="7.5" fill="#FB20F2"/>
<ellipse cx="347.5" cy="461.5" rx="8.5" ry="7.5" fill="#FB20F2"/>
<ellipse cx="582.5" cy="460.5" rx="9.5" ry="8.5" fill="#9EA39B"/>
<ellipse cx="31.5" cy="461.5" rx="8.5" ry="7.5" fill="#FB20F2"/>
<ellipse cx="266.5" cy="461.5" rx="9.5" ry="7.5" fill="#9EA39B"/>
<circle cx="542.5" cy="460.5" r="8.5" fill="#FB20F2"/>
<rect x="19" width="596" height="19" fill="#D9D9D9"/>
</svg>
