<svg width="230" height="56" viewBox="0 0 230 56" fill="none" xmlns="http://www.w3.org/2000/svg">
<path d="M8.52246 29.0384V19.2375V13L18.0021 21.0198L8.52246 29.0384Z" fill="#EEEAEE"/>
<path d="M0 18.2659L6.22507 13V18.2659H0Z" fill="#EEEAEE"/>
<path d="M28.7983 47L21.853 41.1248L28.7983 35.929V47Z" fill="#EEEAEE"/>
<path d="M19.8428 39.3418L9.09033 31.3658L30.9903 14.2574H56.0001L19.8428 39.3418Z" fill="#EEEAEE"/>
<line x1="60.5" x2="60.5" y2="56" stroke="#EEEAEE"/>
<path d="M67.82 31L74.06 17H77.26L83.52 31H80.12L75 18.64H76.28L71.14 31H67.82ZM70.94 28L71.8 25.54H79L79.88 28H70.94ZM84.9725 31V17H91.0325C92.2858 17 93.3658 17.2067 94.2725 17.62C95.1792 18.02 95.8792 18.6 96.3725 19.36C96.8658 20.12 97.1125 21.0267 97.1125 22.08C97.1125 23.12 96.8658 24.02 96.3725 24.78C95.8792 25.5267 95.1792 26.1 94.2725 26.5C93.3658 26.9 92.2858 27.1 91.0325 27.1H86.7725L88.2125 25.68V31H84.9725ZM93.8725 31L90.3725 25.92H93.8325L97.3725 31H93.8725ZM88.2125 26.04L86.7725 24.52H90.8525C91.8525 24.52 92.5992 24.3067 93.0925 23.88C93.5858 23.44 93.8325 22.84 93.8325 22.08C93.8325 21.3067 93.5858 20.7067 93.0925 20.28C92.5992 19.8533 91.8525 19.64 90.8525 19.64H86.7725L88.2125 18.1V26.04ZM102.384 31V19.64H97.9042V17H110.104V19.64H105.624V31H102.384ZM117.512 31V17H120.752V28.36H127.772V31H117.512ZM129.582 31V17H132.822V31H129.582ZM139.144 23.3H145.864V25.9H139.144V23.3ZM139.384 31H136.144V17H146.724V19.6H139.384V31ZM151.898 22.64H158.638V25.16H151.898V22.64ZM152.138 28.4H159.758V31H148.918V17H159.498V19.6H152.138V28.4Z" fill="#EEEAEE"/>
<path d="M73.83 47.65V41.64H70.48L70.42 43.34C70.4 43.8667 70.3667 44.3733 70.32 44.86C70.28 45.34 70.2133 45.7733 70.12 46.16C70.0333 46.54 69.9133 46.85 69.76 47.09C69.6133 47.33 69.42 47.47 69.18 47.51L68.37 47.36C68.6367 47.3733 68.8567 47.2767 69.03 47.07C69.21 46.8633 69.3467 46.5733 69.44 46.2C69.54 45.8267 69.6133 45.39 69.66 44.89C69.7067 44.39 69.74 43.85 69.76 43.27L69.84 41H74.56V47.65H73.83ZM68.11 49.57L68.12 47.36H75.61V49.57H74.92V48H68.81L68.8 49.57H68.11ZM77.1195 48V41H79.7395C80.3328 41 80.8428 41.0967 81.2695 41.29C81.6961 41.4767 82.0228 41.75 82.2495 42.11C82.4828 42.4633 82.5995 42.8933 82.5995 43.4C82.5995 43.8933 82.4828 44.32 82.2495 44.68C82.0228 45.0333 81.6961 45.3067 81.2695 45.5C80.8428 45.6933 80.3328 45.79 79.7395 45.79H77.5295L77.8595 45.44V48H77.1195ZM77.8595 45.5L77.5295 45.14H79.7195C80.4195 45.14 80.9495 44.99 81.3095 44.69C81.6761 44.3833 81.8595 43.9533 81.8595 43.4C81.8595 42.84 81.6761 42.4067 81.3095 42.1C80.9495 41.7933 80.4195 41.64 79.7195 41.64H77.5295L77.8595 41.29V45.5ZM82.7301 48L85.9301 41H86.6601L89.8601 48H89.0801L86.1401 41.43H86.4401L83.5001 48H82.7301ZM83.9901 46.13L84.2101 45.53H88.2801L88.5001 46.13H83.9901ZM91.2015 48V41H91.8115L95.0115 46.46H94.6915L97.8615 41H98.4715V48H97.7615V42.11H97.9315L95.0115 47.11H94.6615L91.7215 42.11H91.9115V48H91.2015ZM99.8004 48L103 41H103.73L106.93 48H106.15L103.21 41.43H103.51L100.57 48H99.8004ZM101.06 46.13L101.28 45.53H105.35L105.57 46.13H101.06ZM109.31 48V41.44L109.51 41.64H106.85V41H112.5V41.64H109.85L110.04 41.44V48H109.31ZM113.799 48V41H114.529V46.8L119.009 41H119.679V48H118.949V42.21L114.469 48H113.799ZM126.196 45.04C125.796 45.22 125.396 45.3567 124.996 45.45C124.603 45.5433 124.223 45.59 123.856 45.59C123.036 45.59 122.396 45.3933 121.936 45C121.483 44.6 121.256 44.0367 121.256 43.31V41H121.986V43.23C121.986 43.77 122.156 44.19 122.496 44.49C122.843 44.79 123.319 44.94 123.926 44.94C124.286 44.94 124.659 44.8933 125.046 44.8C125.433 44.7 125.816 44.56 126.196 44.38V45.04ZM126.066 48V41H126.786V48H126.066ZM129.82 44.13H133.52V44.76H129.82V44.13ZM129.9 47.36H134.11V48H129.16V41H133.96V41.64H129.9V47.36ZM138.793 48.06C138.266 48.06 137.779 47.9733 137.333 47.8C136.886 47.62 136.499 47.37 136.173 47.05C135.846 46.73 135.589 46.3533 135.403 45.92C135.223 45.4867 135.133 45.0133 135.133 44.5C135.133 43.9867 135.223 43.5133 135.403 43.08C135.589 42.6467 135.846 42.27 136.173 41.95C136.506 41.63 136.896 41.3833 137.343 41.21C137.789 41.03 138.276 40.94 138.803 40.94C139.309 40.94 139.786 41.0267 140.233 41.2C140.679 41.3667 141.056 41.62 141.363 41.96L140.893 42.43C140.606 42.1367 140.289 41.9267 139.943 41.8C139.596 41.6667 139.223 41.6 138.823 41.6C138.403 41.6 138.013 41.6733 137.653 41.82C137.293 41.96 136.979 42.1633 136.713 42.43C136.446 42.69 136.236 42.9967 136.083 43.35C135.936 43.6967 135.863 44.08 135.863 44.5C135.863 44.92 135.936 45.3067 136.083 45.66C136.236 46.0067 136.446 46.3133 136.713 46.58C136.979 46.84 137.293 47.0433 137.653 47.19C138.013 47.33 138.403 47.4 138.823 47.4C139.223 47.4 139.596 47.3333 139.943 47.2C140.289 47.0667 140.606 46.8533 140.893 46.56L141.363 47.03C141.056 47.37 140.679 47.6267 140.233 47.8C139.786 47.9733 139.306 48.06 138.793 48.06ZM147.681 48L144.991 44.51L145.591 44.15L148.531 48H147.681ZM142.891 48V41H143.611V48H142.891ZM143.391 44.79V44.14H145.581V44.79H143.391ZM145.651 44.58L144.971 44.46L147.581 41H148.381L145.651 44.58ZM149.668 48V41H150.398V46.8L154.878 41H155.548V48H154.818V42.21L150.338 48H149.668ZM157.91 48V41H158.64V46.8L163.12 41H163.79V48H163.06V42.21L158.58 48H157.91ZM160.83 40.49C160.33 40.49 159.934 40.3767 159.64 40.15C159.354 39.9233 159.207 39.6067 159.2 39.2H159.75C159.757 39.4667 159.857 39.6767 160.05 39.83C160.25 39.9833 160.51 40.06 160.83 40.06C161.15 40.06 161.407 39.9833 161.6 39.83C161.8 39.6767 161.904 39.4667 161.91 39.2H162.46C162.454 39.6067 162.304 39.9233 162.01 40.15C161.717 40.3767 161.324 40.49 160.83 40.49ZM170.16 48V41.44L170.36 41.64H167.7V41H173.35V41.64H170.7L170.89 41.44V48H170.16ZM175.309 44.13H179.009V44.76H175.309V44.13ZM175.389 47.36H179.599V48H174.649V41H179.449V41.64H175.389V47.36ZM180.211 48L183.411 41H184.141L187.341 48H186.561L183.621 41.43H183.921L180.981 48H180.211ZM181.471 46.13L181.691 45.53H185.761L185.981 46.13H181.471ZM189.72 48V41.44L189.92 41.64H187.26V41H192.91V41.64H190.26L190.45 41.44V48H189.72ZM194.209 48V41H196.829C197.423 41 197.933 41.0967 198.359 41.29C198.786 41.4767 199.113 41.75 199.339 42.11C199.573 42.4633 199.689 42.8933 199.689 43.4C199.689 43.8933 199.573 44.32 199.339 44.68C199.113 45.0333 198.786 45.3067 198.359 45.5C197.933 45.6933 197.423 45.79 196.829 45.79H194.619L194.949 45.44V48H194.209ZM194.949 45.5L194.619 45.14H196.809C197.509 45.14 198.039 44.99 198.399 44.69C198.766 44.3833 198.949 43.9533 198.949 43.4C198.949 42.84 198.766 42.4067 198.399 42.1C198.039 41.7933 197.509 41.64 196.809 41.64H194.619L194.949 41.29V45.5Z" fill="#EEEAEE"/>
</svg>
