<svg width="800" height="800" viewBox="0 0 800 800" fill="none" xmlns="http://www.w3.org/2000/svg">
<g clip-path="url(#clip0_60_2)">
<path d="M400 -0.875C178.975 -0.875 -0.875 178.975 -0.875 400C-0.875 621.025 178.975 800.875 400 800.875C621.025 800.875 800.875 621.025 800.875 400C800.875 178.975 621.025 -0.875 400 -0.875ZM400 774.125C193.7 774.125 25.875 606.3 25.875 400C25.875 193.7 193.7 25.875 400 25.875C606.3 25.875 774.125 193.7 774.125 400C774.125 606.3 606.3 774.125 400 774.125Z" fill="#DF1099"/>
<path d="M619.925 277.05C619.25 277.35 618.55 277.65 617.85 277.95C621.125 272.25 623.8 266.175 625.825 259.825C627.4 254.875 625.775 249.475 621.7 246.25C617.625 243.025 612 242.625 607.55 245.275C594.5 253.025 580.475 258.725 565.725 262.3C548.4 246.5 525.525 237.55 501.9 237.55C449.75 237.55 407.325 279.95 407.325 332.075C407.325 333.725 407.35 335.35 407.45 337C350.975 330.225 298.8 301.625 262.525 257.125C259.925 253.95 255.975 252.1 251.85 252.55C247.75 252.875 244.1 255.175 242.025 258.725C233.675 273.075 229.225 289.525 229.225 306.275C229.225 322.95 232.975 338.525 240.025 352.075C236.35 351.325 232.65 352.7 229.725 354.975C226.775 357.3 225 361.45 225 365.275C225 394.2 238.675 420.725 260.55 438.3C260.375 438.475 260.2 438.65 260.025 438.85C257.1 442.15 256.15 446.75 257.475 450.95C266.375 478.7 287.325 500.15 313.525 510.275C286.95 523.825 256.025 529.075 226.35 525.675C220.75 525 215.125 528.425 213.15 533.9C211.2 539.375 213.275 545.475 218.2 548.625C257.875 574.05 303.7 587.475 350.75 587.475C504.725 587.475 596.725 462.425 596.725 341.5C596.725 340 596.725 338.5 596.7 337C611.725 325.35 624.7 311.375 635.375 295.4C638.475 290.775 638.125 284.675 634.55 280.4C630.975 276.15 625.025 274.825 619.925 277.05ZM576.7 320.725C573.25 323.2 571.3 327.25 571.5 331.5C571.65 334.825 571.725 338.175 571.725 341.5C571.725 450.125 489.075 562.475 350.75 562.475C324.8 562.475 299.275 557.925 275.175 549.125C303.8 544.175 330.625 532.275 353.975 513.975C358.15 510.725 359.8 505.175 358.125 500.175C356.45 495.15 351.8 491.75 346.5 491.65C323.3 491.225 302.35 479.45 289.85 460.975C296 460.6 301.9 459.575 308.4 457.825C314 456.3 317.8 451.125 317.6 445.325C317.4 439.55 313.25 434.65 307.575 433.5C280.6 428.075 259.075 407.325 252.275 381.6C253.4 382 254.425 382.35 255.4 382.7C261.675 384.95 266.65 386.75 276.1 387.025C281.875 387.05 286.675 383.65 288.4 378.325C290.125 373 288.075 367.225 283.45 364.125C264.925 351.75 254.3 330.65 254.3 306.225C254.3 300.05 255.125 293.95 256.7 288.075C299.925 332.95 358.9 360.05 421.4 363.2C425.275 363.625 429.1 361.725 431.6 358.725C434.125 355.725 435.075 351.7 434.2 347.875C433 342.7 432.4 337.375 432.4 332C432.4 293.65 463.625 262.475 501.975 262.475C521.15 262.475 539.65 270.475 552.75 284.45C555.7 287.575 560.05 288.975 564.3 288.15C569.825 287.05 575.275 285.7 580.65 284.1C577.8 286.5 574.725 288.7 571.5 290.65C566.425 293.675 564.2 299.825 566.1 305.4C568.025 310.975 573.675 314.475 579.4 313.775C581.925 313.475 584.45 313.125 586.95 312.725C583.625 315.55 580.225 318.2 576.7 320.725Z" fill="#DF1099"/>
</g>
<defs>
<clipPath id="clip0_60_2">
<rect width="800" height="800" fill="white"/>
</clipPath>
</defs>
</svg>
